<mxfile host="app.diagrams.net" modified="2023-06-20T10:29:56.394Z" agent="Mozilla/5.0 (Windows NT 10.0; Win64; x64) AppleWebKit/537.36 (KHTML, like Gecko) Chrome/114.0.0.0 Safari/537.36" etag="cJ0AA0zfx-i4Xd4WdbFW" version="21.5.0" type="device">
  <diagram name="Page-1" id="MtcR4eRIbeIhaL5Bs6DK">
    <mxGraphModel dx="1707" dy="427" grid="1" gridSize="10" guides="1" tooltips="1" connect="1" arrows="1" fold="1" page="1" pageScale="1" pageWidth="827" pageHeight="1169" math="0" shadow="0">
      <root>
        <mxCell id="0" />
        <mxCell id="1" parent="0" />
        <mxCell id="ptAIh6lp7bvAPG9Yeihl-1" value="Producer" style="rounded=0;whiteSpace=wrap;html=1;" parent="1" vertex="1">
          <mxGeometry x="40" y="160" width="120" height="40" as="geometry" />
        </mxCell>
        <mxCell id="ptAIh6lp7bvAPG9Yeihl-2" value="" style="endArrow=none;html=1;rounded=0;" parent="1" target="ptAIh6lp7bvAPG9Yeihl-3" edge="1">
          <mxGeometry width="50" height="50" relative="1" as="geometry">
            <mxPoint x="40" y="160" as="sourcePoint" />
            <mxPoint x="40" y="120" as="targetPoint" />
          </mxGeometry>
        </mxCell>
        <mxCell id="ptAIh6lp7bvAPG9Yeihl-3" value="Country" style="ellipse;whiteSpace=wrap;html=1;" parent="1" vertex="1">
          <mxGeometry x="-20" y="80" width="110" height="40" as="geometry" />
        </mxCell>
        <mxCell id="ptAIh6lp7bvAPG9Yeihl-4" value="" style="endArrow=none;html=1;rounded=0;" parent="1" edge="1">
          <mxGeometry width="50" height="50" relative="1" as="geometry">
            <mxPoint x="120" y="160" as="sourcePoint" />
            <mxPoint x="130" y="120" as="targetPoint" />
          </mxGeometry>
        </mxCell>
        <mxCell id="ptAIh6lp7bvAPG9Yeihl-5" value="&lt;u&gt;ID&lt;/u&gt;" style="ellipse;whiteSpace=wrap;html=1;" parent="1" vertex="1">
          <mxGeometry x="100" y="80" width="100" height="40" as="geometry" />
        </mxCell>
        <mxCell id="ptAIh6lp7bvAPG9Yeihl-6" value="" style="endArrow=none;html=1;rounded=0;" parent="1" edge="1">
          <mxGeometry width="50" height="50" relative="1" as="geometry">
            <mxPoint x="60" y="200" as="sourcePoint" />
            <mxPoint x="60" y="250" as="targetPoint" />
          </mxGeometry>
        </mxCell>
        <mxCell id="ptAIh6lp7bvAPG9Yeihl-8" value="Company Name" style="ellipse;whiteSpace=wrap;html=1;" parent="1" vertex="1">
          <mxGeometry x="10" y="250" width="110" height="50" as="geometry" />
        </mxCell>
        <mxCell id="ptAIh6lp7bvAPG9Yeihl-9" value="1" style="endArrow=none;html=1;rounded=0;" parent="1" edge="1">
          <mxGeometry width="50" height="50" relative="1" as="geometry">
            <mxPoint x="160" y="180" as="sourcePoint" />
            <mxPoint x="240" y="180" as="targetPoint" />
          </mxGeometry>
        </mxCell>
        <mxCell id="ptAIh6lp7bvAPG9Yeihl-10" value="Produce" style="rhombus;whiteSpace=wrap;html=1;" parent="1" vertex="1">
          <mxGeometry x="240" y="140" width="80" height="80" as="geometry" />
        </mxCell>
        <mxCell id="ptAIh6lp7bvAPG9Yeihl-11" value="m" style="endArrow=none;html=1;rounded=0;" parent="1" edge="1">
          <mxGeometry width="50" height="50" relative="1" as="geometry">
            <mxPoint x="320" y="180" as="sourcePoint" />
            <mxPoint x="400" y="180" as="targetPoint" />
          </mxGeometry>
        </mxCell>
        <mxCell id="ptAIh6lp7bvAPG9Yeihl-13" value="Reality Show" style="rounded=0;whiteSpace=wrap;html=1;" parent="1" vertex="1">
          <mxGeometry x="400" y="160" width="120" height="40" as="geometry" />
        </mxCell>
        <mxCell id="ptAIh6lp7bvAPG9Yeihl-15" value="1" style="endArrow=none;html=1;rounded=0;" parent="1" edge="1">
          <mxGeometry width="50" height="50" relative="1" as="geometry">
            <mxPoint x="520" y="180" as="sourcePoint" />
            <mxPoint x="600" y="180" as="targetPoint" />
          </mxGeometry>
        </mxCell>
        <mxCell id="ptAIh6lp7bvAPG9Yeihl-16" value="Rate" style="rhombus;whiteSpace=wrap;html=1;" parent="1" vertex="1">
          <mxGeometry x="600" y="140" width="80" height="80" as="geometry" />
        </mxCell>
        <mxCell id="ptAIh6lp7bvAPG9Yeihl-17" value="m" style="endArrow=none;html=1;rounded=0;" parent="1" edge="1">
          <mxGeometry width="50" height="50" relative="1" as="geometry">
            <mxPoint x="680" y="180" as="sourcePoint" />
            <mxPoint x="760" y="180" as="targetPoint" />
          </mxGeometry>
        </mxCell>
        <mxCell id="ptAIh6lp7bvAPG9Yeihl-18" value="User" style="rounded=0;whiteSpace=wrap;html=1;" parent="1" vertex="1">
          <mxGeometry x="760" y="160" width="120" height="40" as="geometry" />
        </mxCell>
        <mxCell id="ptAIh6lp7bvAPG9Yeihl-19" value="" style="endArrow=none;html=1;rounded=0;" parent="1" edge="1">
          <mxGeometry width="50" height="50" relative="1" as="geometry">
            <mxPoint x="400" y="160" as="sourcePoint" />
            <mxPoint x="380" y="120" as="targetPoint" />
          </mxGeometry>
        </mxCell>
        <mxCell id="ptAIh6lp7bvAPG9Yeihl-20" value="&lt;u&gt;ID&lt;/u&gt;" style="ellipse;whiteSpace=wrap;html=1;" parent="1" vertex="1">
          <mxGeometry x="320" y="80" width="110" height="40" as="geometry" />
        </mxCell>
        <mxCell id="ptAIh6lp7bvAPG9Yeihl-21" value="" style="endArrow=none;html=1;rounded=0;" parent="1" edge="1">
          <mxGeometry width="50" height="50" relative="1" as="geometry">
            <mxPoint x="460" y="160" as="sourcePoint" />
            <mxPoint x="480" y="120" as="targetPoint" />
          </mxGeometry>
        </mxCell>
        <mxCell id="ptAIh6lp7bvAPG9Yeihl-22" value="Name" style="ellipse;whiteSpace=wrap;html=1;" parent="1" vertex="1">
          <mxGeometry x="450" y="80" width="100" height="40" as="geometry" />
        </mxCell>
        <mxCell id="ptAIh6lp7bvAPG9Yeihl-23" value="Participent" style="ellipse;shape=doubleEllipse;margin=3;whiteSpace=wrap;html=1;align=center;" parent="1" vertex="1">
          <mxGeometry x="313.5" y="220" width="100" height="40" as="geometry" />
        </mxCell>
        <mxCell id="ptAIh6lp7bvAPG9Yeihl-24" value="" style="endArrow=none;html=1;rounded=0;entryX=0;entryY=1;entryDx=0;entryDy=0;" parent="1" target="ptAIh6lp7bvAPG9Yeihl-13" edge="1">
          <mxGeometry relative="1" as="geometry">
            <mxPoint x="370" y="219" as="sourcePoint" />
            <mxPoint x="420" y="219" as="targetPoint" />
          </mxGeometry>
        </mxCell>
        <mxCell id="ptAIh6lp7bvAPG9Yeihl-25" value="" style="endArrow=none;html=1;rounded=0;exitX=1;exitY=1;exitDx=0;exitDy=0;" parent="1" source="ptAIh6lp7bvAPG9Yeihl-13" target="ptAIh6lp7bvAPG9Yeihl-26" edge="1">
          <mxGeometry relative="1" as="geometry">
            <mxPoint x="500" y="220" as="sourcePoint" />
            <mxPoint x="540" y="230" as="targetPoint" />
          </mxGeometry>
        </mxCell>
        <mxCell id="ptAIh6lp7bvAPG9Yeihl-26" value="Basic Information" style="ellipse;whiteSpace=wrap;html=1;align=center;" parent="1" vertex="1">
          <mxGeometry x="510" y="220" width="100" height="40" as="geometry" />
        </mxCell>
        <mxCell id="ptAIh6lp7bvAPG9Yeihl-27" value="" style="endArrow=none;html=1;rounded=0;exitX=0;exitY=0;exitDx=0;exitDy=0;" parent="1" source="ptAIh6lp7bvAPG9Yeihl-18" target="ptAIh6lp7bvAPG9Yeihl-28" edge="1">
          <mxGeometry relative="1" as="geometry">
            <mxPoint x="760" y="150" as="sourcePoint" />
            <mxPoint x="780" y="159" as="targetPoint" />
          </mxGeometry>
        </mxCell>
        <mxCell id="ptAIh6lp7bvAPG9Yeihl-28" value="Age" style="ellipse;whiteSpace=wrap;html=1;align=center;" parent="1" vertex="1">
          <mxGeometry x="690" y="80" width="100" height="40" as="geometry" />
        </mxCell>
        <mxCell id="ptAIh6lp7bvAPG9Yeihl-30" value="ID" style="ellipse;whiteSpace=wrap;html=1;align=center;fontStyle=4;" parent="1" vertex="1">
          <mxGeometry x="827" y="80" width="100" height="40" as="geometry" />
        </mxCell>
        <mxCell id="ptAIh6lp7bvAPG9Yeihl-32" value="" style="endArrow=none;html=1;rounded=0;entryX=0.5;entryY=1;entryDx=0;entryDy=0;" parent="1" target="ptAIh6lp7bvAPG9Yeihl-30" edge="1">
          <mxGeometry relative="1" as="geometry">
            <mxPoint x="850" y="160" as="sourcePoint" />
            <mxPoint x="1010" y="160" as="targetPoint" />
          </mxGeometry>
        </mxCell>
        <mxCell id="ptAIh6lp7bvAPG9Yeihl-33" value="" style="endArrow=none;html=1;rounded=0;" parent="1" target="ptAIh6lp7bvAPG9Yeihl-34" edge="1">
          <mxGeometry relative="1" as="geometry">
            <mxPoint x="880" y="179.5" as="sourcePoint" />
            <mxPoint x="940" y="180" as="targetPoint" />
          </mxGeometry>
        </mxCell>
        <mxCell id="ptAIh6lp7bvAPG9Yeihl-34" value="Password" style="ellipse;whiteSpace=wrap;html=1;align=center;" parent="1" vertex="1">
          <mxGeometry x="927" y="160" width="100" height="40" as="geometry" />
        </mxCell>
        <mxCell id="ptAIh6lp7bvAPG9Yeihl-35" value="m" style="endArrow=none;html=1;rounded=0;exitX=0.5;exitY=1;exitDx=0;exitDy=0;" parent="1" source="ptAIh6lp7bvAPG9Yeihl-13" edge="1">
          <mxGeometry relative="1" as="geometry">
            <mxPoint x="410" y="250" as="sourcePoint" />
            <mxPoint x="460" y="280" as="targetPoint" />
          </mxGeometry>
        </mxCell>
        <mxCell id="ptAIh6lp7bvAPG9Yeihl-37" value="Broadcast" style="shape=rhombus;perimeter=rhombusPerimeter;whiteSpace=wrap;html=1;align=center;" parent="1" vertex="1">
          <mxGeometry x="415" y="280" width="90" height="80" as="geometry" />
        </mxCell>
        <mxCell id="ptAIh6lp7bvAPG9Yeihl-38" value="1" style="endArrow=none;html=1;rounded=0;" parent="1" edge="1">
          <mxGeometry relative="1" as="geometry">
            <mxPoint x="459.5" y="360" as="sourcePoint" />
            <mxPoint x="459.5" y="440" as="targetPoint" />
          </mxGeometry>
        </mxCell>
        <mxCell id="ptAIh6lp7bvAPG9Yeihl-39" value="TV Chanel" style="whiteSpace=wrap;html=1;align=center;" parent="1" vertex="1">
          <mxGeometry x="400" y="440" width="120" height="40" as="geometry" />
        </mxCell>
        <mxCell id="ptAIh6lp7bvAPG9Yeihl-40" value="" style="endArrow=none;html=1;rounded=0;exitX=0;exitY=0.5;exitDx=0;exitDy=0;" parent="1" source="ptAIh6lp7bvAPG9Yeihl-39" target="ptAIh6lp7bvAPG9Yeihl-41" edge="1">
          <mxGeometry relative="1" as="geometry">
            <mxPoint x="350" y="459.5" as="sourcePoint" />
            <mxPoint x="400" y="459.5" as="targetPoint" />
          </mxGeometry>
        </mxCell>
        <mxCell id="ptAIh6lp7bvAPG9Yeihl-41" value="ID" style="ellipse;whiteSpace=wrap;html=1;align=center;fontStyle=4;" parent="1" vertex="1">
          <mxGeometry x="250" y="440" width="100" height="40" as="geometry" />
        </mxCell>
        <mxCell id="ptAIh6lp7bvAPG9Yeihl-42" value="" style="endArrow=none;html=1;rounded=0;" parent="1" edge="1">
          <mxGeometry relative="1" as="geometry">
            <mxPoint x="520" y="459.5" as="sourcePoint" />
            <mxPoint x="600" y="460" as="targetPoint" />
          </mxGeometry>
        </mxCell>
        <mxCell id="ptAIh6lp7bvAPG9Yeihl-43" value="Name" style="ellipse;whiteSpace=wrap;html=1;align=center;" parent="1" vertex="1">
          <mxGeometry x="600" y="440" width="100" height="40" as="geometry" />
        </mxCell>
        <mxCell id="ptAIh6lp7bvAPG9Yeihl-44" value="" style="endArrow=none;html=1;rounded=0;exitX=0.133;exitY=1.075;exitDx=0;exitDy=0;exitPerimeter=0;" parent="1" source="ptAIh6lp7bvAPG9Yeihl-39" target="ptAIh6lp7bvAPG9Yeihl-45" edge="1">
          <mxGeometry relative="1" as="geometry">
            <mxPoint x="414" y="500" as="sourcePoint" />
            <mxPoint x="416" y="560" as="targetPoint" />
          </mxGeometry>
        </mxCell>
        <mxCell id="ptAIh6lp7bvAPG9Yeihl-45" value="Start Date" style="ellipse;whiteSpace=wrap;html=1;align=center;" parent="1" vertex="1">
          <mxGeometry x="325" y="540" width="100" height="40" as="geometry" />
        </mxCell>
        <mxCell id="ptAIh6lp7bvAPG9Yeihl-46" value="" style="endArrow=none;html=1;rounded=0;" parent="1" edge="1">
          <mxGeometry relative="1" as="geometry">
            <mxPoint x="500" y="480" as="sourcePoint" />
            <mxPoint x="530" y="540" as="targetPoint" />
          </mxGeometry>
        </mxCell>
        <mxCell id="ptAIh6lp7bvAPG9Yeihl-47" value="Attribute" style="ellipse;whiteSpace=wrap;html=1;align=center;" parent="1" vertex="1">
          <mxGeometry x="490" y="540" width="100" height="40" as="geometry" />
        </mxCell>
      </root>
    </mxGraphModel>
  </diagram>
</mxfile>
